<svg width="48" height="37" viewBox="0 0 48 37" fill="none" xmlns="http://www.w3.org/2000/svg">
<path d="M40.6606 3.09869C37.507 1.63024 34.1777 0.588474 30.7579 0C30.2899 0.850847 29.8665 1.72626 29.4893 2.62256C25.8465 2.06427 22.1421 2.06427 18.4993 2.62256C18.1219 1.72635 17.6985 0.85095 17.2307 0C13.8087 0.593444 10.4772 1.63768 7.3204 3.10637C1.05329 12.5368 -0.645624 21.7331 0.203834 30.7988C3.87401 33.5567 7.98198 35.6542 12.3492 37C13.3325 35.6549 14.2027 34.2278 14.9504 32.734C13.5302 32.1946 12.1595 31.529 10.8541 30.745C11.1977 30.4916 11.5337 30.2305 11.8584 29.9771C15.6568 31.7938 19.8025 32.7358 24 32.7358C28.1974 32.7358 32.3432 31.7938 36.1415 29.9771C36.47 30.2497 36.806 30.5108 37.1458 30.745C35.8379 31.5303 34.4646 32.1971 33.042 32.7379C33.7888 34.231 34.659 35.6568 35.6432 37C40.0141 35.6596 44.1252 33.5631 47.7961 30.8026V30.8026C48.7928 20.2893 46.0934 11.1776 40.6606 3.09869ZM16.0264 25.2234C13.6592 25.2234 11.7036 23.0386 11.7036 20.3508C11.7036 17.6629 13.5913 15.4589 16.0188 15.4589C18.4464 15.4589 20.3869 17.6629 20.3454 20.3508C20.3039 23.0386 18.4389 25.2234 16.0264 25.2234ZM31.9735 25.2234C29.6026 25.2234 27.6545 23.0386 27.6545 20.3508C27.6545 17.6629 29.5422 15.4589 31.9735 15.4589C34.4049 15.4589 36.3303 17.6629 36.2888 20.3508C36.2472 23.0386 34.386 25.2234 31.9735 25.2234Z" fill="#83838B"/>
</svg>
