<svg width="18" height="20" viewBox="0 0 18 20" fill="none" xmlns="http://www.w3.org/2000/svg">
<path fill-rule="evenodd" clip-rule="evenodd" d="M13.41 2.38294H13.5C15.9853 2.38294 18 4.45858 18 7.01901V15.3639C18 17.9244 15.9853 20 13.5 20H4.5C3.30653 20 2.16193 19.5116 1.31802 18.6421C0.474106 17.7727 0 16.5935 0 15.3639V7.01901C0 4.45858 2.01472 2.38294 4.5 2.38294H4.59V0.69541C4.59 0.311346 4.89221 0 5.265 0C5.63779 0 5.94 0.311346 5.94 0.69541V2.38294H12.06V0.69541C12.06 0.311346 12.3622 0 12.735 0C13.1078 0 13.41 0.311346 13.41 0.69541V2.38294ZM4.95 8.02967H13.05C13.4228 8.02967 13.725 7.71832 13.725 7.33426C13.725 6.9502 13.4228 6.63885 13.05 6.63885H4.95C4.57721 6.63885 4.275 6.9502 4.275 7.33426C4.275 7.71832 4.57721 8.02967 4.95 8.02967Z" fill="black"/>
</svg>
