<svg width="20" height="20" viewBox="0 0 20 20" fill="none" xmlns="http://www.w3.org/2000/svg">
<path fill-rule="evenodd" clip-rule="evenodd" d="M14.9 2.38294H15C17.7614 2.38294 20 4.45858 20 7.01901V15.3639C20 17.9244 17.7614 20 15 20H5C3.67392 20 2.40215 19.5116 1.46447 18.6421C0.526784 17.7727 0 16.5935 0 15.3639V7.01901C0 4.45858 2.23858 2.38294 5 2.38294H5.1V0.69541C5.1 0.311346 5.43579 0 5.85 0C6.26421 0 6.6 0.311346 6.6 0.69541V2.38294H13.4V0.69541C13.4 0.311346 13.7358 0 14.15 0C14.5642 0 14.9 0.311346 14.9 0.69541V2.38294ZM5.5 8.02967H14.5C14.9142 8.02967 15.25 7.71832 15.25 7.33426C15.25 6.9502 14.9142 6.63885 14.5 6.63885H5.5C5.08579 6.63885 4.75 6.9502 4.75 7.33426C4.75 7.71832 5.08579 8.02967 5.5 8.02967Z" fill="#83838B"/>
</svg>
