<svg width="18" height="20" viewBox="0 0 18 20" fill="none" xmlns="http://www.w3.org/2000/svg">
<path fill-rule="evenodd" clip-rule="evenodd" d="M4.4226 0H13.5774C16.0199 0 18 1.73701 18 3.87973V16.1203C18 18.263 16.0199 20 13.5774 20H4.4226C1.98007 20 0 18.263 0 16.1203V3.87973C0 1.73701 1.98007 0 4.4226 0ZM11.6425 5.89719H4.23464C3.78888 5.89719 3.42752 6.21419 3.42752 6.60524C3.42752 6.99628 3.78888 7.31329 4.23464 7.31329H11.6425C12.0883 7.31329 12.4496 6.99628 12.4496 6.60524C12.4496 6.21419 12.0883 5.89719 11.6425 5.89719ZM9.53071 15.0727H4.23464C3.78888 15.0727 3.42752 14.7557 3.42752 14.3647C3.42752 13.9736 3.78888 13.6566 4.23464 13.6566H9.53071C9.97648 13.6566 10.3378 13.9736 10.3378 14.3647C10.3378 14.7557 9.97648 15.0727 9.53071 15.0727ZM4.23464 11.193H13.7654C14.2111 11.193 14.5725 10.876 14.5725 10.485C14.5725 10.0939 14.2111 9.77692 13.7654 9.77692H4.23464C3.78888 9.77692 3.42752 10.0939 3.42752 10.485C3.42752 10.876 3.78888 11.193 4.23464 11.193Z" fill="black"/>
</svg>
