<svg width="15" height="16" viewBox="0 0 15 16" fill="none" xmlns="http://www.w3.org/2000/svg">
<path d="M7.4973 16C7.30477 15.9998 7.12019 15.9231 6.98413 15.7868L0.206392 9.00303C0.0247828 8.81607 -0.0433754 8.54633 0.0275917 8.29543C0.0985589 8.04453 0.29787 7.85058 0.550446 7.78665C0.803022 7.72271 1.07049 7.7985 1.2521 7.98546L7.4973 14.2362L13.7425 7.98546C13.9235 7.79101 14.1962 7.71096 14.4535 7.77673C14.7108 7.8425 14.9117 8.04359 14.9774 8.30111C15.0431 8.55864 14.9631 8.83152 14.7689 9.01272L7.99111 15.7965C7.85831 15.9246 7.68176 15.9974 7.4973 16Z" fill="black"/>
<path d="M7.4973 15.9903C7.09842 15.9851 6.77633 15.6627 6.77112 15.2635V0.726832C6.77112 0.46716 6.90953 0.227213 7.13421 0.0973771C7.35889 -0.032459 7.63571 -0.032459 7.8604 0.0973771C8.08508 0.227213 8.22349 0.46716 8.22349 0.726832V15.2635C8.21828 15.6627 7.89619 15.9851 7.4973 15.9903Z" fill="black"/>
</svg>
