<svg width="21" height="20" viewBox="0 0 21 20" fill="none" xmlns="http://www.w3.org/2000/svg">
<path fill-rule="evenodd" clip-rule="evenodd" d="M20.3955 5.90256C20.7491 6.7546 20.5287 7.73706 19.845 8.35614C19.3891 8.76819 19.1281 9.3536 19.1262 9.96832C19.1244 10.583 19.3819 11.17 19.8354 11.5847C20.5174 12.2027 20.7381 13.1825 20.3872 14.0335C20.0362 14.8844 19.189 15.4233 18.27 15.3803C17.6582 15.3527 17.0631 15.5837 16.6301 16.0169C16.1971 16.4501 15.9662 17.0456 15.9938 17.6576C16.0138 18.5548 15.4825 19.3728 14.6549 19.7188C13.8273 20.0649 12.8723 19.8685 12.2482 19.2238C11.835 18.7689 11.2491 18.5095 10.6347 18.5095C10.0203 18.5095 9.43445 18.7689 9.02126 19.2238C8.41223 19.9473 7.40658 20.1956 6.5311 19.8386C5.65561 19.4817 5.10983 18.6009 5.17964 17.6576C5.20724 17.0456 4.97631 16.4501 4.54332 16.0169C4.11033 15.5837 3.5152 15.3527 2.90348 15.3803C2.00671 15.4003 1.18919 14.8688 0.843282 14.0407C0.497378 13.2127 0.6937 12.2572 1.33803 11.6328C1.79274 11.2194 2.05199 10.6332 2.05199 10.0185C2.05199 9.40377 1.79274 8.81759 1.33803 8.40419C0.614954 7.79485 0.366804 6.78869 0.723564 5.91276C1.08032 5.03683 1.96068 4.49077 2.90348 4.56062C3.5152 4.58823 4.11033 4.35718 4.54332 3.92397C4.97631 3.49076 5.20724 2.89533 5.17964 2.28331C5.13662 1.36375 5.67524 0.516172 6.52576 0.16502C7.37628 -0.186132 8.35558 0.03475 8.97324 0.717051C9.38643 1.172 9.97232 1.43138 10.5867 1.43138C11.2011 1.43138 11.787 1.172 12.2002 0.717051C12.8179 0.03475 13.7972 -0.186132 14.6477 0.16502C15.4982 0.516172 16.0368 1.36375 15.9938 2.28331C15.9662 2.89533 16.1971 3.49076 16.6301 3.92397C17.0631 4.35718 17.6582 4.58823 18.27 4.56062C19.1908 4.51319 20.0419 5.05052 20.3955 5.90256ZM8.81958 7.80844C8.81958 7.41042 8.49708 7.08777 8.09927 7.08777C7.70362 7.09294 7.38414 7.41259 7.37897 7.80844C7.37897 8.20645 7.70146 8.52911 8.09927 8.52911C8.49708 8.52911 8.81958 8.20645 8.81958 7.80844ZM13.1606 12.8531C12.7628 12.8531 12.4403 12.5305 12.4403 12.1325C12.4403 11.7344 12.7628 11.4118 13.1606 11.4118C13.5584 11.4118 13.8809 11.7344 13.8809 12.1325C13.8757 12.5283 13.5563 12.8479 13.1606 12.8531ZM8.32977 13.2471L13.8617 7.70274V7.71235C14.1262 7.42839 14.1184 6.9859 13.844 6.71146C13.5697 6.43702 13.1275 6.42921 12.8437 6.6938L7.31174 12.2285C7.17445 12.3624 7.09702 12.546 7.09702 12.7378C7.09702 12.9296 7.17445 13.1132 7.31174 13.2471C7.44412 13.3861 7.62891 13.4628 7.82076 13.4585C8.01194 13.4594 8.19542 13.3832 8.32977 13.2471Z" fill="black"/>
</svg>
