<svg width="20" height="20" viewBox="0 0 20 20" fill="none" xmlns="http://www.w3.org/2000/svg">
<path fill-rule="evenodd" clip-rule="evenodd" d="M12.7263 0.893424L18.2842 5.00321C19.3553 5.77925 19.9927 7.02008 20 8.34373V15.7835C19.9312 18.1691 17.9518 20.0518 15.5684 19.9987H4.44211C2.05466 20.0577 0.0688305 18.1733 0 15.7835V8.34373C0.0073259 7.02008 0.644652 5.77925 1.71579 5.00321L7.27368 0.893424C8.89647 -0.297808 11.1035 -0.297808 12.7263 0.893424ZM5.26322 15.5411H14.7369C15.1729 15.5411 15.5264 15.1872 15.5264 14.7507C15.5264 14.3142 15.1729 13.9604 14.7369 13.9604H5.26322C4.8272 13.9604 4.47374 14.3142 4.47374 14.7507C4.47374 15.1872 4.8272 15.5411 5.26322 15.5411Z" fill="#83838B"/>
</svg>
