<svg width="18" height="19" viewBox="0 0 18 19" fill="none" xmlns="http://www.w3.org/2000/svg">
<path d="M0 8.3735C0 7.18638 0.527292 6.06059 1.43926 5.30061L6.43926 1.13395C7.92264 -0.102203 10.0774 -0.102206 11.5607 1.13395L16.5607 5.30061C17.4727 6.06059 18 7.18638 18 8.3735V15C18 17.2091 16.2091 19 14 19H12.8421C12.2898 19 11.8421 18.5523 11.8421 18V15C11.8421 13.8954 10.9467 13 9.84211 13H8.1579C7.05333 13 6.15789 13.8954 6.15789 15V18C6.15789 18.5523 5.71018 19 5.15789 19H4C1.79086 19 0 17.2091 0 15L0 8.3735Z" fill="black"/>
</svg>
