<svg width="19" height="20" viewBox="0 0 19 20" fill="none" xmlns="http://www.w3.org/2000/svg">
<path fill-rule="evenodd" clip-rule="evenodd" d="M17.5795 12.3466C17.5824 12.946 17.8404 13.5144 18.2864 13.9041C19.8114 15.2965 18.7308 17.6792 16.5695 17.6792H12.7318C12.2344 19.0658 10.9459 19.9911 9.5 20C8.04933 20.0063 6.75319 19.0755 6.26822 17.6792H2.43047C0.269216 17.6792 -0.811412 15.2965 0.713586 13.9041C1.1596 13.5144 1.41764 12.946 1.42054 12.3466V7.36461C1.42054 3.30067 5.0361 0 9.5 0C13.9639 0 17.5795 3.30067 17.5795 7.36461V12.3466ZM7.9649 17.6792C8.33243 18.165 8.89888 18.4505 9.5 18.4528C10.0869 18.438 10.636 18.1538 10.9947 17.6792H7.9649Z" fill="black"/>
</svg>
