<svg width="20" height="20" viewBox="0 0 20 20" fill="none" xmlns="http://www.w3.org/2000/svg">
<path fill-rule="evenodd" clip-rule="evenodd" d="M10.8816 0H16.9195C18.6208 0 20 1.5461 20 3.45331V16.4492C20 18.3565 18.6208 19.9026 16.9195 19.9026H10.8816C9.18024 19.9026 7.80104 18.3565 7.80104 16.4492V12.4434H10.1833C11.3176 12.4434 12.237 11.4127 12.237 10.1412V9.76134C12.237 8.48987 11.3176 7.45914 10.1833 7.45914H7.80104V3.45331C7.80104 1.5461 9.18024 0 10.8816 0ZM13.2947 5.34111H16.7346C17.16 5.34111 17.5048 4.95459 17.5048 4.47779C17.5048 4.00098 17.16 3.61446 16.7346 3.61446H13.2947C12.8693 3.61446 12.5245 4.00098 12.5245 4.47779C12.5245 4.95459 12.8693 5.34111 13.2947 5.34111Z" fill="#83838B"/>
<path d="M10.3168 8.57571H7.82157V11.3384H10.3168C10.8329 11.3384 11.2512 10.8694 11.2512 10.2909V9.62321C11.2512 9.04469 10.8329 8.57571 10.3168 8.57571Z" fill="#83838B"/>
<path fill-rule="evenodd" clip-rule="evenodd" d="M0.0072519 3.94828C-0.11075 1.95035 1.22515 0.216891 3.00565 0.057555C4.77654 0.228673 6.09756 1.96062 5.97325 3.94828V14.6765C5.98286 15.2264 5.84709 15.7671 5.58304 16.2305L3.66284 19.5572C3.52682 19.8306 3.26947 20 2.99025 20C2.71103 20 2.45368 19.8306 2.31766 19.5572L0.397455 16.2305C0.137786 15.7649 0.00238993 15.2257 0.0072519 14.6765V3.94828ZM2.99538 8.23038C3.42072 8.23038 3.76552 7.84385 3.76552 7.36705V3.38424C3.76831 3.15433 3.68807 2.93291 3.54303 2.77033C3.39799 2.60774 3.20048 2.51778 2.99538 2.52091C2.57005 2.52091 2.22525 2.90744 2.22525 3.38424V7.36705C2.22525 7.84385 2.57005 8.23038 2.99538 8.23038Z" fill="#83838B"/>
</svg>
