<svg width="20" height="20" viewBox="0 0 20 20" fill="none" xmlns="http://www.w3.org/2000/svg">
<path d="M11.2278 13.6182L7.83966 14.3484C7.70758 14.363 7.57431 14.363 7.44223 14.3484C6.97225 14.3525 6.52064 14.1648 6.19032 13.8282C5.7658 13.3898 5.59011 12.7651 5.72333 12.1678L6.44865 8.76679C6.60273 8.09804 6.94817 7.48944 7.44223 7.01628L13.1056 1.31465H4.16341C3.05521 1.30109 1.98847 1.73831 1.2048 2.52727C0.421123 3.31623 -0.0131627 4.39018 0.000304112 5.50585V15.8588C0.000304112 18.1459 1.84195 20 4.11373 20H14.4072C16.679 20 18.5207 18.1459 18.5207 15.8588V7.0663L12.9765 12.6579C12.4991 13.1428 11.8912 13.4766 11.2278 13.6182Z" fill="#83838B"/>
<path fill-rule="evenodd" clip-rule="evenodd" d="M14.7351 1.10459C15.885 -0.223528 17.8815 -0.375053 19.2162 0.764495C19.7756 1.41296 20.0546 2.25949 19.9911 3.116C19.9277 3.9725 19.5271 4.76803 18.8784 5.3258L12.2512 11.9977C11.9017 12.3305 11.463 12.5531 10.9893 12.6379L7.63101 13.3981C7.35471 13.4792 7.05657 13.3973 6.85945 13.1862C6.66233 12.9751 6.59958 12.6705 6.69705 12.3978L7.42236 8.99685C7.53317 8.53358 7.77067 8.11083 8.10793 7.7765L14.7351 1.10459ZM15.1425 5.76593L17.3681 3.52528C17.6417 3.22969 17.6336 2.76906 17.3499 2.48336C17.0661 2.19767 16.6085 2.18954 16.3149 2.46498L14.0893 4.70562C13.7987 4.99852 13.7987 5.47302 14.0893 5.76593C14.3802 6.05846 14.8516 6.05846 15.1425 5.76593Z" fill="#83838B"/>
</svg>
