<svg width="15" height="16" viewBox="0 0 15 16" fill="none" xmlns="http://www.w3.org/2000/svg">
<path d="M14.7921 7.45867L8.44747 0.220415C8.2726 0.0264666 8.02033 -0.0463226 7.78567 0.0294665C7.55101 0.105256 7.36962 0.318109 7.30982 0.587846C7.25002 0.857584 7.32091 1.14323 7.49577 1.33717L12.6712 7.23118H0.679785C0.30435 7.23118 0 7.5784 0 8.00671C0 8.43502 0.30435 8.78224 0.679785 8.78224H12.6621L7.49577 14.6762C7.3662 14.8203 7.29313 15.0179 7.29313 15.2243C7.29313 15.4307 7.3662 15.6283 7.49577 15.7723C7.6207 15.9219 7.7951 16.0045 7.97615 15.9998C8.15658 16.0008 8.32974 15.9188 8.45653 15.7723L14.8012 8.53407C15.0663 8.23128 15.0663 7.74077 14.8012 7.43799L14.7921 7.45867Z" fill="black"/>
</svg>
