<svg width="14" height="20" viewBox="0 0 14 20" fill="none" xmlns="http://www.w3.org/2000/svg">
<path d="M12.2059 19.7332L7.75704 16.0827C7.33418 15.7386 6.74879 15.7386 6.32593 16.0827L1.83556 19.7332C1.50811 20.0148 1.06169 20.0789 0.676434 19.8996C0.291181 19.7203 0.0306623 19.3271 0 18.8788V3.27806C0.0402203 2.36339 0.419639 1.50363 1.05421 0.889232C1.68878 0.274834 2.52612 -0.0434851 3.38074 0.00478774H10.64C11.4998 -0.0372491 12.3394 0.291336 12.9709 0.916988C13.6024 1.54264 13.9731 2.41311 14 3.33354V18.8788C13.9596 19.311 13.7058 19.6869 13.3349 19.8635C12.964 20.0401 12.5331 19.9904 12.2059 19.7332Z" fill="black"/>
</svg>
