<svg width="82" height="82" viewBox="0 0 82 82" fill="none" xmlns="http://www.w3.org/2000/svg">
<path d="M20.5 17.5265L13.7692 21.934C7.17502 26.239 7.17502 35.874 13.7692 40.179L34.3375 53.6065C38.0275 56.0324 44.1092 56.0324 47.7992 53.6065L68.265 40.179C74.825 35.874 74.825 26.2732 68.265 21.9682L47.7992 8.54069C44.1092 6.11486 38.0275 6.11486 34.3375 8.54069" stroke="white" stroke-width="6" stroke-linecap="round" stroke-linejoin="round"/>
<path d="M19.2358 44.5523L19.2017 60.5765C19.2017 64.9157 22.55 69.5623 26.65 70.929L37.5492 74.5507C39.4283 75.1657 42.5375 75.1657 44.4508 74.5507L55.35 70.929C59.45 69.5623 62.7983 64.9157 62.7983 60.5765V44.7232" stroke="white" stroke-width="6" stroke-linecap="round" stroke-linejoin="round"/>
<path d="M73.1166 51.1123V30.6123" stroke="white" stroke-width="6" stroke-linecap="round" stroke-linejoin="round"/>
</svg>
