<svg width="20" height="20" viewBox="0 0 20 20" fill="none" xmlns="http://www.w3.org/2000/svg">
<path d="M20 13.52V4.28571C20 1.91878 17.9349 0 15.3875 0H4.61255C2.06511 0 0 1.91878 0 4.28571V16.3314C0 18.3575 1.76773 20 3.94834 20H19.0775C19.587 20 20 19.6162 20 19.1429C20 18.6695 19.587 18.2857 19.0775 18.2857H3.94834C2.78671 18.2857 1.84502 17.4108 1.84502 16.3314C1.84502 15.2521 2.78671 14.3771 3.94834 14.3771H19.0775C19.587 14.3771 20 13.9934 20 13.52Z" fill="#83838B"/>
<path d="M3.94834 15.4743C3.43885 15.4743 3.02583 15.858 3.02583 16.3314C3.02583 16.8048 3.43885 17.1886 3.94834 17.1886H17.5646C18.0741 17.1886 18.4871 16.8048 18.4871 16.3314C18.4871 15.858 18.0741 15.4743 17.5646 15.4743H3.94834Z" fill="#83838B"/>
</svg>
