<svg width="18" height="20" viewBox="0 0 18 20" fill="none" xmlns="http://www.w3.org/2000/svg">
<path d="M18 13.52V4.28571C18 1.91878 16.1414 0 13.8487 0H4.15129C1.8586 0 0 1.91878 0 4.28571V16.3314C0 18.3575 1.59096 20 3.55351 20H17.1697C17.6283 20 18 19.6162 18 19.1429C18 18.6695 17.6283 18.2857 17.1697 18.2857H3.55351C2.50804 18.2857 1.66052 17.4108 1.66052 16.3314C1.66052 15.2521 2.50804 14.3771 3.55351 14.3771H17.1697C17.6283 14.3771 18 13.9934 18 13.52Z" fill="black"/>
<path d="M3.5535 15.4743C3.09497 15.4743 2.72325 15.858 2.72325 16.3314C2.72325 16.8048 3.09497 17.1886 3.5535 17.1886H15.8081C16.2667 17.1886 16.6384 16.8048 16.6384 16.3314C16.6384 15.858 16.2667 15.4743 15.8081 15.4743H3.5535Z" fill="black"/>
</svg>
