<svg width="21" height="21" viewBox="0 0 21 21" fill="none" xmlns="http://www.w3.org/2000/svg">
<path d="M11.6818 18.8742C11.9673 18.944 11.9946 19.3176 11.7173 19.4149V19.4149L10.1362 19.9622C6.16352 21.3095 4.0721 20.1833 2.78122 16.0045L1.50035 11.8468C0.21948 7.66804 1.2802 5.45761 5.2529 4.1103L5.78534 3.92483C6.18575 3.78535 6.58239 4.182 6.472 4.59139C6.41031 4.82016 6.35122 5.05978 6.29361 5.31025L5.31294 9.72058C4.2122 14.6782 5.82329 17.415 10.5365 18.5939L11.6818 18.8742Z" fill="#171717"/>
<path d="M16.1803 1.24727L14.5092 0.836758C11.1669 0.00521715 9.17557 0.689396 8.00477 3.23665C7.70457 3.87873 7.46441 4.65764 7.26427 5.55233L6.2836 9.96266C5.30294 14.3625 6.59381 16.5308 10.7667 17.5728L12.4478 17.9939C13.0282 18.1412 13.5686 18.236 14.0689 18.2781C17.191 18.5938 18.8522 17.0571 19.6927 13.2572L20.6734 8.85745C21.6541 4.45765 20.3732 2.2788 16.1803 1.24727ZM14.2991 11.8994C14.209 12.2573 13.9088 12.4889 13.5686 12.4889C13.5085 12.4889 13.4485 12.4783 13.3784 12.4678L10.4664 11.6889C10.0662 11.5836 9.82601 11.1521 9.92608 10.731C10.0261 10.31 10.4364 10.0574 10.8367 10.1627L13.7487 10.9416C14.159 11.0468 14.3991 11.4784 14.2991 11.8994ZM17.231 8.34168C17.141 8.69956 16.8408 8.93113 16.5006 8.93113C16.4405 8.93113 16.3805 8.9206 16.3104 8.91008L11.4571 7.6154C11.0568 7.51014 10.8167 7.07858 10.9168 6.65755C11.0168 6.23651 11.4271 5.98389 11.8274 6.08915L16.6807 7.38383C17.091 7.47856 17.3311 7.91012 17.231 8.34168Z" fill="#171717"/>
</svg>
